<svg xmlns="http://www.w3.org/2000/svg" xmlns:xlink="http://www.w3.org/1999/xlink" width="100" zoomAndPan="magnify" viewBox="0 0 75 74.999997" height="100" preserveAspectRatio="xMidYMid meet" version="1.0"><defs><clipPath id="77bc6dba7d"><path d="M 1.957031 1.957031 L 73.207031 1.957031 L 73.207031 73.207031 L 1.957031 73.207031 Z M 1.957031 1.957031 " clip-rule="nonzero"/></clipPath><clipPath id="98391c2a42"><path d="M 73.199219 37.582031 C 73.199219 38.75 73.144531 39.914062 73.027344 41.074219 C 72.914062 42.234375 72.742188 43.386719 72.515625 44.53125 C 72.289062 45.675781 72.003906 46.808594 71.667969 47.921875 C 71.328125 49.039062 70.933594 50.136719 70.488281 51.214844 C 70.042969 52.292969 69.542969 53.347656 68.992188 54.375 C 68.445312 55.40625 67.84375 56.402344 67.195312 57.375 C 66.546875 58.34375 65.855469 59.28125 65.113281 60.183594 C 64.375 61.085938 63.589844 61.949219 62.765625 62.773438 C 61.941406 63.597656 61.078125 64.378906 60.175781 65.121094 C 59.273438 65.859375 58.335938 66.554688 57.367188 67.203125 C 56.398438 67.851562 55.398438 68.449219 54.367188 69 C 53.339844 69.550781 52.285156 70.050781 51.207031 70.496094 C 50.128906 70.941406 49.035156 71.335938 47.917969 71.671875 C 46.800781 72.011719 45.671875 72.296875 44.527344 72.523438 C 43.382812 72.75 42.230469 72.921875 41.066406 73.035156 C 39.90625 73.148438 38.742188 73.207031 37.574219 73.207031 C 36.410156 73.207031 35.246094 73.148438 34.082031 73.035156 C 32.921875 72.921875 31.769531 72.75 30.625 72.523438 C 29.480469 72.296875 28.351562 72.011719 27.234375 71.671875 C 26.117188 71.335938 25.019531 70.941406 23.941406 70.496094 C 22.863281 70.050781 21.8125 69.550781 20.78125 69 C 19.753906 68.449219 18.753906 67.851562 17.785156 67.203125 C 16.8125 66.554688 15.878906 65.859375 14.976562 65.121094 C 14.074219 64.378906 13.210938 63.597656 12.386719 62.773438 C 11.558594 61.949219 10.777344 61.085938 10.035156 60.183594 C 9.296875 59.28125 8.601562 58.34375 7.953125 57.375 C 7.304688 56.402344 6.707031 55.40625 6.15625 54.375 C 5.605469 53.347656 5.109375 52.292969 4.664062 51.214844 C 4.214844 50.136719 3.824219 49.039062 3.484375 47.921875 C 3.144531 46.808594 2.863281 45.675781 2.636719 44.53125 C 2.40625 43.386719 2.238281 42.234375 2.121094 41.074219 C 2.007812 39.914062 1.949219 38.75 1.949219 37.582031 C 1.949219 36.414062 2.007812 35.25 2.121094 34.089844 C 2.238281 32.929688 2.40625 31.777344 2.636719 30.632812 C 2.863281 29.488281 3.144531 28.355469 3.484375 27.242188 C 3.824219 26.125 4.214844 25.027344 4.664062 23.949219 C 5.109375 22.871094 5.605469 21.816406 6.15625 20.789062 C 6.707031 19.757812 7.304688 18.761719 7.953125 17.789062 C 8.601562 16.820312 9.296875 15.882812 10.035156 14.980469 C 10.777344 14.078125 11.558594 13.214844 12.386719 12.390625 C 13.210938 11.566406 14.074219 10.785156 14.976562 10.042969 C 15.878906 9.304688 16.8125 8.609375 17.785156 7.960938 C 18.753906 7.3125 19.753906 6.714844 20.78125 6.164062 C 21.8125 5.613281 22.863281 5.117188 23.941406 4.667969 C 25.019531 4.222656 26.117188 3.828125 27.234375 3.492188 C 28.351562 3.152344 29.480469 2.871094 30.625 2.640625 C 31.769531 2.414062 32.921875 2.242188 34.082031 2.128906 C 35.246094 2.015625 36.410156 1.957031 37.574219 1.957031 C 38.742188 1.957031 39.90625 2.015625 41.066406 2.128906 C 42.230469 2.242188 43.382812 2.414062 44.527344 2.640625 C 45.671875 2.871094 46.800781 3.152344 47.917969 3.492188 C 49.035156 3.828125 50.128906 4.222656 51.207031 4.667969 C 52.285156 5.117188 53.339844 5.613281 54.367188 6.164062 C 55.398438 6.714844 56.398438 7.3125 57.367188 7.960938 C 58.335938 8.609375 59.273438 9.304688 60.175781 10.042969 C 61.078125 10.785156 61.941406 11.566406 62.765625 12.390625 C 63.589844 13.214844 64.375 14.078125 65.113281 14.980469 C 65.855469 15.882812 66.546875 16.820312 67.195312 17.789062 C 67.84375 18.761719 68.445312 19.757812 68.992188 20.789062 C 69.542969 21.816406 70.042969 22.871094 70.488281 23.949219 C 70.933594 25.027344 71.328125 26.125 71.667969 27.242188 C 72.003906 28.355469 72.289062 29.488281 72.515625 30.632812 C 72.742188 31.777344 72.914062 32.929688 73.027344 34.089844 C 73.144531 35.25 73.199219 36.414062 73.199219 37.582031 Z M 73.199219 37.582031 " clip-rule="nonzero"/></clipPath><linearGradient x1="0.0000821616" gradientTransform="matrix(71.198453, 0, 0, 71.198468, 1.950523, 37.556428)" y1="0" x2="1.000724" gradientUnits="userSpaceOnUse" y2="0" id="fb8d3efd84"><stop stop-opacity="1" stop-color="rgb(16.468811%, 67.059326%, 93.328857%)" offset="0"/><stop stop-opacity="1" stop-color="rgb(16.419983%, 66.978455%, 93.199158%)" offset="0.03125"/><stop stop-opacity="1" stop-color="rgb(16.320801%, 66.819763%, 92.941284%)" offset="0.0625"/><stop stop-opacity="1" stop-color="rgb(16.223145%, 66.659546%, 92.684937%)" offset="0.09375"/><stop stop-opacity="1" stop-color="rgb(16.125488%, 66.500854%, 92.427063%)" offset="0.125"/><stop stop-opacity="1" stop-color="rgb(16.026306%, 66.340637%, 92.170715%)" offset="0.15625"/><stop stop-opacity="1" stop-color="rgb(15.92865%, 66.181946%, 91.912842%)" offset="0.1875"/><stop stop-opacity="1" stop-color="rgb(15.830994%, 66.021729%, 91.654968%)" offset="0.21875"/><stop stop-opacity="1" stop-color="rgb(15.731812%, 65.863037%, 91.398621%)" offset="0.25"/><stop stop-opacity="1" stop-color="rgb(15.634155%, 65.70282%, 91.140747%)" offset="0.28125"/><stop stop-opacity="1" stop-color="rgb(15.536499%, 65.544128%, 90.882874%)" offset="0.3125"/><stop stop-opacity="1" stop-color="rgb(15.437317%, 65.383911%, 90.626526%)" offset="0.34375"/><stop stop-opacity="1" stop-color="rgb(15.339661%, 65.223694%, 90.368652%)" offset="0.375"/><stop stop-opacity="1" stop-color="rgb(15.242004%, 65.065002%, 90.110779%)" offset="0.40625"/><stop stop-opacity="1" stop-color="rgb(15.142822%, 64.904785%, 89.854431%)" offset="0.4375"/><stop stop-opacity="1" stop-color="rgb(15.045166%, 64.746094%, 89.596558%)" offset="0.46875"/><stop stop-opacity="1" stop-color="rgb(14.94751%, 64.585876%, 89.338684%)" offset="0.5"/><stop stop-opacity="1" stop-color="rgb(14.848328%, 64.427185%, 89.082336%)" offset="0.53125"/><stop stop-opacity="1" stop-color="rgb(14.750671%, 64.266968%, 88.824463%)" offset="0.5625"/><stop stop-opacity="1" stop-color="rgb(14.651489%, 64.108276%, 88.566589%)" offset="0.59375"/><stop stop-opacity="1" stop-color="rgb(14.553833%, 63.948059%, 88.310242%)" offset="0.625"/><stop stop-opacity="1" stop-color="rgb(14.456177%, 63.789368%, 88.052368%)" offset="0.65625"/><stop stop-opacity="1" stop-color="rgb(14.356995%, 63.62915%, 87.794495%)" offset="0.6875"/><stop stop-opacity="1" stop-color="rgb(14.259338%, 63.470459%, 87.538147%)" offset="0.71875"/><stop stop-opacity="1" stop-color="rgb(14.161682%, 63.310242%, 87.280273%)" offset="0.75"/><stop stop-opacity="1" stop-color="rgb(14.0625%, 63.15155%, 87.0224%)" offset="0.78125"/><stop stop-opacity="1" stop-color="rgb(13.964844%, 62.991333%, 86.766052%)" offset="0.8125"/><stop stop-opacity="1" stop-color="rgb(13.867188%, 62.832642%, 86.508179%)" offset="0.84375"/><stop stop-opacity="1" stop-color="rgb(13.768005%, 62.672424%, 86.250305%)" offset="0.875"/><stop stop-opacity="1" stop-color="rgb(13.670349%, 62.513733%, 85.993958%)" offset="0.90625"/><stop stop-opacity="1" stop-color="rgb(13.572693%, 62.353516%, 85.736084%)" offset="0.9375"/><stop stop-opacity="1" stop-color="rgb(13.473511%, 62.194824%, 85.47821%)" offset="0.96875"/><stop stop-opacity="1" stop-color="rgb(13.375854%, 62.037659%, 85.224915%)" offset="1"/></linearGradient></defs><g clip-path="url(#77bc6dba7d)"><g clip-path="url(#98391c2a42)"><path fill="url(#fb8d3efd84)" d="M 1.957031 1.957031 L 1.957031 73.207031 L 73.199219 73.207031 L 73.199219 1.957031 Z M 1.957031 1.957031 " fill-rule="nonzero"/></g></g><path fill="#ffffff" d="M 18.042969 37.195312 C 28.417969 32.644531 35.355469 29.703125 38.851562 28.261719 C 48.730469 24.152344 50.78125 23.433594 52.113281 23.375 C 52.390625 23.375 53.058594 23.433594 53.5 23.765625 C 53.835938 24.042969 53.945312 24.429688 54 24.707031 C 54.054688 24.984375 54.113281 25.597656 54.054688 26.09375 C 53.5 31.699219 51.226562 45.40625 50.003906 51.675781 C 49.507812 54.339844 48.507812 55.226562 47.5625 55.339844 C 45.511719 55.503906 43.902344 53.953125 41.902344 52.675781 C 38.796875 50.621094 37.019531 49.347656 33.96875 47.347656 C 30.472656 45.019531 32.746094 43.742188 34.746094 41.6875 C 35.246094 41.132812 44.402344 32.867188 44.566406 32.089844 C 44.566406 31.976562 44.621094 31.644531 44.402344 31.476562 C 44.179688 31.3125 43.902344 31.367188 43.679688 31.421875 C 43.347656 31.476562 38.351562 34.808594 28.640625 41.355469 C 27.199219 42.355469 25.921875 42.796875 24.757812 42.796875 C 23.480469 42.796875 21.039062 42.078125 19.207031 41.464844 C 16.988281 40.746094 15.210938 40.355469 15.378906 39.136719 C 15.492188 38.527344 16.378906 37.859375 18.042969 37.195312 Z M 18.042969 37.195312 " fill-opacity="1" fill-rule="evenodd"/></svg>